<svg xmlns="http://www.w3.org/2000/svg" version="1.1" xmlns:xlink="http://www.w3.org/1999/xlink"
  xmlns:svgjs="http://svgjs.dev/svgjs" width="1500" height="1682" viewBox="0 0 1500 1682">
  <g transform="matrix(1,0,0,1,-2.3364485981305734,0)"><svg viewBox="0 0 321 360" data-background-color="#ffffff"
      preserveAspectRatio="xMidYMid meet" height="1682" width="1500" xmlns="http://www.w3.org/2000/svg"
      xmlns:xlink="http://www.w3.org/1999/xlink">
      <g id="tight-bounds" transform="matrix(1,0,0,1,0.49999999999994316,0)"><svg viewBox="0 0 320 360" height="360"
          width="320">
          <g><svg></svg></g>
          <g><svg viewBox="0 0 320 360" height="360" width="320">
              <g>
                <path
                  d="M85.508 32.884c0-1.117 0.558-2.233 1.675-2.233 1.117 0 2.233 0.558 2.234 2.233 0.558 0 1.675 0 2.233-0.558 2.233 0 4.467-0.558 6.141 0 1.675 0.558 2.792 0.558 4.467 1.117 1.675 0.558 2.792 0 3.908-0.559 2.233-0.558 3.908-1.675 6.141-2.233 1.117-0.558 1.675-0.558 2.792-0.558 1.117-0.558 2.233-0.558 3.908-1.117 2.792-0.558 5.583-1.117 7.817-2.233 2.233-1.117 4.467-1.117 6.699-1.675 1.117 0 1.675-0.558 2.792-1.117 0.558 0 0.558-0.558 1.116-1.116 1.117-0.558 1.675-1.117 2.792-0.559 0.558 0.558 1.675 0.558 2.233 0h0.559c3.35 0 6.7-0.558 10.608 0 0.558 0 1.117 0 1.116 0 1.675-1.117 3.908-1.117 6.142-1.116 0.558 0 1.675 0 2.233 0h0.558c2.233 0 4.467 0 6.142 0.558 1.675 0 2.792 0.558 4.466 1.117 1.675 0 2.792 0 4.467 0.558 1.117 0 2.233 0 3.35 0 0.558 0 1.117 0 1.116 0 2.233 0.558 4.467 0.558 6.7 0.558 1.675 0.558 3.35 1.117 5.583 1.117 0.558 0 1.117 0 1.675 0 0.558 0 1.117 0.558 1.675 0.558l0.558 0.559c2.233 0 3.908 1.117 6.142 1.116 0.558 0 1.675 0 2.233 0.559 1.675 1.117 3.908 1.675 6.141 1.675 1.117 0 1.675 0.558 2.234 1.116 1.675 0.558 2.792 1.117 4.466 1.675 1.117 0.558 2.233 0 3.35 0.558 1.675 0.558 3.908 1.117 5.583 2.792 1.117 1.117 2.233 1.117 3.908 2.233 0.558 0 1.117 0.558 1.675 1.117 1.675 1.117 3.35 2.233 5.025 2.791 0.558 0 1.117 0.558 1.675 0.559 1.675 1.117 3.35 2.792 5.583 3.908 1.117 0.558 1.675 1.117 2.792 1.675h0.558c1.675 1.675 3.908 2.792 5.583 4.466 1.675 1.675 2.792 2.792 5.025 3.909 0 0 0 0 0 0.558 0.558 1.117 1.117 1.675 2.233 2.233 1.117 0.558 1.675 1.117 2.234 1.675 1.675 1.117 3.35 2.233 4.466 3.35 0.558 0.558 1.117 1.117 2.233 2.233 0.558 0.558 1.117 1.117 1.675 1.117 2.233 0.558 3.35 2.233 5.025 3.908 1.117 1.117 2.792 2.792 3.908 3.908 0.558 0.558 1.117 1.675 1.675 2.792 1.117 3.35 2.792 6.7 4.467 9.491 0 0 0 0.558 0.558 1.117v0.558c1.117 1.117 1.675 2.792 2.792 3.908 0.558 0.558 0.558 1.117 1.116 1.675 1.117 1.675 1.675 3.908 2.792 5.583 1.675 2.792 2.792 5.583 3.908 8.375v0.558c0.558 1.117 1.117 2.233 1.675 3.908 0 1.117 1.117 2.233 1.675 3.909 0.558 2.792 2.233 5.583 2.791 8.933 0 0.558 0.558 1.117 0.559 2.233 0.558 1.675 1.117 3.35 1.675 5.025 0 0.558 0.558 1.117 1.116 1.675 1.117 1.117 1.117 2.233 1.117 3.35-0.558 2.233 0 4.467 0.558 6.699 0 0.558 0 1.117 0 2.234 0.558 2.233 1.117 5.025 1.117 7.258 0 0.558 0 1.675 0 2.233 0 1.675 0.558 3.35 1.675 5.025 0 0.558 0.558 0.558 0.558 0.558 0.558 0.558 1.117 1.675 1.675 2.233 0.558 0.558 0.558 0.558 1.117 1.117 1.117 1.117 1.675 2.233 1.675 3.908 0 0.558-0.558 1.675-0.559 2.233 0 0.558 0 1.675 0.559 2.234 0.558 0.558 0.558 1.117 0.558 1.675 0 0.558-0.558 1.117-1.117 1.116v0c-0.558 1.675-2.792 2.233-3.35 3.908-0.558 2.233-1.117 4.467-1.674 6.7-0.558 1.675-0.558 2.792-0.559 4.467 0 1.675-0.558 2.792-0.558 4.466-0.558 2.233-1.117 4.467-1.675 6.7 0 1.117-0.558 2.233-0.558 3.35 0.558 0.558 1.117 1.117 1.675 1.116 1.117 1.117 2.233 2.233 3.349 3.35 0.558 0.558 0.558 1.117 0 1.117-0.558 0.558-1.117 0.558-1.674 0.558-0.558-0.558-1.675-1.117-2.234-1.116-0.558-0.558-1.675-1.117-2.791-0.559 0 1.117-0.558 2.233-0.559 2.792-0.558 1.117-1.117 2.792-1.116 3.908-0.558 2.233-1.675 3.908-2.233 6.142-1.117 2.792-2.233 5.025-3.35 7.258-0.558 1.117-1.117 2.233-1.675 3.35v0c0 1.675-1.675 3.35-2.234 5.024-1.117 2.233-2.233 4.467-3.349 7.258-0.558 1.117-1.117 2.233-1.675 2.792-1.117 2.792-2.233 5.025-3.909 7.258-1.117 1.675-2.233 2.792-3.349 3.35-1.117 1.117-2.233 2.233-3.35 3.35-0.558 0.558-1.117 1.117-1.675 1.675-0.558 0.558-0.558 0.558-1.117 1.116-1.117 1.675-2.792 2.792-3.908 4.467-1.117 1.117-1.675 2.233-3.35 3.35-1.117 1.117-2.233 2.792-3.908 3.35-0.558 0.558-1.117 1.675-1.675 2.233-0.558 0.558-1.117 1.675-1.675 2.233 0 1.117 0.558 2.233 0.558 2.792 0 1.675-1.675 2.233-2.791 1.116-1.675-1.117-1.675-1.117-3.35 0-1.675 1.117-3.35 2.792-5.583 3.35-0.558 0-0.558 0.558-1.117 0.559-1.117 0.558-1.675 1.675-2.792 2.233-1.117 1.117-2.792 1.675-3.908 2.791-0.558 0.558-1.117 0.558-1.675 1.117-1.675 1.117-3.35 1.675-5.024 3.35-0.558 0.558-1.117 0.558-1.675 1.117 0 0.558 0 0.558 0 1.116 0 1.117-1.117 2.233-2.792 1.675-1.675-0.558-2.792 0-4.466 0-1.675 0.558-3.35 1.675-5.025 2.233-0.558 0-1.117 0.558-1.675 1.117-1.675 1.117-3.35 1.675-5.025 2.233-1.117 0-2.233 1.117-3.35 1.117-0.558 0-1.117 0.558-1.675 0.558h-0.558c-2.233 1.675-4.467 2.792-6.7 4.467-0.558 0-0.558 0.558-1.117 1.116-0.558 1.117-1.117 1.675-2.233 1.675-2.792 0-3.908 2.233-3.35 4.467 0 0.558 0.558 1.117 0.559 1.675 0.558 1.117 0 2.233-0.559 2.791-0.558 0.558-2.233 0.558-2.791-0.558-1.117-1.117-1.675-2.233-2.234-3.908-0.558-1.117-1.675-2.233-2.791-2.792-1.117-0.558-2.233-0.558-3.35 0-0.558 0-0.558 0.558-1.117 0.558-1.117 1.117-2.792 1.675-4.466 1.117-0.558 0-1.675 0-1.675 0.558-0.558 0.558-0.558 1.675 0 2.234 1.117 1.117 0.558 2.233 0.558 3.908 0 2.233-1.675 3.35-3.908 2.233-0.558-0.558-1.117-0.558-1.675-1.117-0.558 0-0.558-0.558-0.558-1.116-0.558-0.558-0.558-1.675-1.117-2.792-1.117 0.558-2.233 0.558-3.35 1.117-0.558 0-1.117 0.558-1.675 0.558-1.675 0-2.233 0-2.791-1.675-0.558-1.675-1.675-1.675-2.792-2.233-2.233-0.558-5.025-0.558-7.258-1.675h-0.558c-2.233-1.675-4.467-1.675-7.258-1.675-1.675 0-3.35 0.558-5.025 0.558-1.675 0-2.792 0.558-3.908 1.675-0.558 0.558-1.117 1.117-1.675 1.117-0.558-0.558-0.558-1.117-1.117-1.675v-0.558c0-0.558-0.558-1.117-1.116-0.559-1.117 0.558-2.233-0.558-3.35-1.116-0.558-0.558-1.675-1.675-1.675-2.792-0.558-0.558-1.117-1.117-1.675-1.116-1.117 0-2.792-0.558-3.908-0.559-0.558 0-1.117 0-1.117-0.558-0.558-0.558-1.117-0.558-2.233-0.558-0.558 0-0.558-0.558-1.117-0.559 1.117 1.117 1.675 2.233 2.233 3.35 0 0.558 0.558 0.558 0.559 1.117 0.558 1.117 0 1.675-1.675 1.675-1.117 0-1.117 0-1.675 0.558 0 1.117 0 1.675 0 2.792 0 0.558 0 1.117-1.117 1.675 0 0-0.558 0-0.558 0.558-0.558 0.558-0.558 1.117 0 1.675 1.675 1.117 2.792 1.675 4.466 2.233 1.675 0 1.675 1.117 2.234 2.233 0.558 1.117 0 1.675-0.559 2.792-1.117 1.117-2.233 2.233-3.35 3.35-1.675 0.558-2.792 2.233-4.466 2.233-1.117 0-2.233-0.558-2.792-1.675-0.558-2.792-0.558-5.025 0.559-7.816 0-0.558 0.558-1.117 0-1.675-5.025 0-5.025-1.117-5.025-1.675 0-1.117 0.558-1.675 0.558-2.792 0.558-1.117 0-1.675-1.675-2.233-0.558 0-1.117 0-1.675 0-0.558 0-0.558-0.558-1.675-0.558 1.117-0.558 1.675-0.558 2.792-1.117-0.558-2.233-1.117-3.908-2.792-5.025-0.558-0.558-1.117-1.117-1.116-2.233 0-1.675-1.117-2.792-1.675-3.908-1.117-1.675-3.35-2.233-5.025-2.233-1.675-0.558-2.792-0.558-4.467-1.117-1.675-0.558-3.35-2.233-5.024-2.792-0.558-0.558-1.117-1.117-2.234-1.674-2.233-1.117-3.908-2.792-5.583-4.467-1.117-0.558-1.675-1.675-2.791-2.233-1.117-1.117-1.675-2.233-2.792-2.792-1.117-1.117-2.233-2.233-3.908-3.35-1.675-1.117-2.792-2.792-4.467-4.466-1.117-1.675-2.792-2.792-4.466-3.908-0.558 0-1.117 0-1.675 0-0.558 0-1.117 0.558-1.675 0.558-1.675 0.558-2.792 1.675-4.467 2.233 0.558-0.558 0.558-0.558 0-1.675-0.558-0.558-1.117-1.117-1.674-1.116-1.117 0-2.233 0-3.35 0-2.233 0-4.467 0.558-6.7 0.558-1.675 0-3.908 0.558-5.583 1.117 0.558 1.117 0.558 1.675 1.116 2.791-1.117 0.558-2.233 0.558-3.35 0.558-0.558 0-1.675 0.558-2.233 1.117-0.558 0-0.558 0.558-1.116 0-1.117-0.558-2.233 0-3.35 0.558h-0.559c0 0 0-0.558 0.559-0.558 0.558-0.558 1.117-1.117 1.675-1.675 0.558-0.558 1.117-0.558 2.233-1.117-0.558-0.558-0.558-1.117-0.558-1.116-0.558-0.558-1.117-0.558-1.675 0-0.558 0.558-1.117 1.117-1.675 1.675-0.558 0.558-1.117 0.558-1.675 0-0.558-0.558-0.558-1.117 0-1.675 0-0.558 0.558-1.117 1.116-1.675 0.558-0.558 0.558-1.117 1.117-1.675-1.117-1.117-1.675-2.233-2.792-2.792-1.675-1.117-3.35-2.792-4.466-4.466-1.117-2.233-2.792-3.908-5.025-5.025-0.558-0.558-1.117-1.117-1.675-1.675-0.558-0.558-0.558-0.558-1.116-1.117-1.675 0.558-2.792 1.675-4.467 2.234-0.558 0-0.558 0.558-1.117 1.116-0.558 1.117-1.675 1.117-2.791 1.117-0.558 0-1.117-0.558-0.558-1.117 0.558-1.117 1.117-2.233 2.791-1.675 0 0 0.558 0 0.558-0.558 1.117-1.117 2.233-2.792 3.909-3.908-0.558-1.675-1.675-2.792-2.234-3.908-0.558-0.558-0.558-1.117-0.558-2.234 0-0.558 0-0.558-0.558-1.116 0 0-0.558 0-1.117 0.558-0.558 0.558-1.675 1.117-2.791 0 0-0.558 0-1.117 0.558-1.675l0.558-0.558c1.675-0.558 1.675-2.233 1.675-3.908v-0.559c-0.558-1.117-0.558-1.675 0.558-2.791 1.675-1.117 3.35-3.35 3.909-5.025 0.558-1.117 1.675-1.675 2.791-2.792 1.117-1.117 2.233-2.233 2.792-3.908h0.558c2.233 0.558 2.792-1.117 3.908-2.791 0-0.558 0-1.117 0.559-1.117 1.117-1.117 1.117-2.233 0.558-3.908 0-0.558-0.558-1.675-0.558-2.233 0-0.558 0-0.558-0.559-1.117-1.675-1.117-1.675-2.233 0-3.35 1.117-0.558 1.117-1.675 1.675-2.233 0.558-1.117 0.558-2.233 0.559-3.908-0.558-1.675-0.558-3.908-1.117-5.583-0.558-2.233-1.117-5.025-1.675-7.259 0-0.558 0-0.558 0-1.116 0-1.675 0-2.792-0.558-4.467-0.558-0.558-0.558-1.675-0.559-2.233-0.558-1.675-1.117-2.792-2.791-3.35-1.675-1.117-3.908-1.675-5.583-2.791-0.558-0.558-1.117 0-1.675 0.558-0.558 1.117-1.675 2.233-2.234 3.35-0.558 0.558-1.117 1.675-1.675 2.791-1.117 1.117-3.35 2.233-5.024 0.559-0.558-1.117-1.117-1.675 0-2.792 1.117-1.675 2.233-3.35 3.908-4.466 0.558-0.558 1.117-1.675 1.675-2.234 0.558-1.117 0.558-2.233 0.558-3.35-0.558-2.233-1.117-4.467-1.117-7.258 0-2.792 0-5.025 0.559-7.816 0.558-1.117 0.558-2.792 1.116-3.908 0-0.558 0.558-1.675 1.117-2.233 1.117-1.117 2.233-2.233 2.792-3.909 0.558-1.675 1.675-3.35 1.675-5.024 0-0.558 0.558-1.117 0.558-1.675 0-0.558 0.558-1.675 0.558-2.234-0.558-1.675 0-2.792 0.558-3.908 0.558-1.117 1.117-2.792 1.675-3.908 1.117-2.233 1.117-5.025 3.35-7.258 0.558-1.117 1.117-2.233 1.675-3.35 0.558-2.233 1.675-3.908 2.792-5.583 0.558-0.558 0.558-0.558 0.558-1.117 0.558-1.675 1.675-3.35 2.792-5.025 1.117-1.675 1.117-3.35 1.675-5.024 0-0.558 0-1.117 0.558-1.675 1.675-1.675 1.117-3.908 0.558-6.142-1.117-2.792-1.675-5.583-1.116-8.374 0-0.558 0-1.117 0.558-1.117 0.558-1.117 0.558-1.675 1.117-2.792v-0.558c1.117-1.117 2.233-2.792 3.908-3.35 2.233-1.117 4.467-1.675 7.258-2.233 2.233 0 4.467-1.117 6.141-3.35 0-0.558 0.558-0.558 1.117-1.117l0.558-0.558c0.558-1.117 1.117-1.675 1.675-2.233 1.117-1.117 2.233-2.792 3.35-3.908 1.117-1.117 2.233-2.792 3.908-4.467l0.559-0.558c1.117-1.117 2.233-2.233 3.349-2.792 1.117-1.117 2.233-2.233 3.35-3.35 1.117-1.117 1.675-2.233 2.792-3.35 1.117-0.558 2.233-1.675 3.35-2.791 1.117-1.117 2.233-2.233 2.791-2.792 1.117-1.117 2.792-2.233 3.909-2.791 1.117-0.558 2.233-1.117 2.791-2.792 0.558-1.675 1.117-2.792 1.675-4.466 0-1.117 0.558-2.233 1.117-3.35 0.558 0 1.117 0 2.233-0.558-0.558-0.558-1.117-0.558-1.117-1.117 0-0.558 0.558-1.117 0.559-1.117 0-0.558 0.558-1.117 0.558-1.675 0 0 0.558 0 0.558-0.558 0 0 0.558 0 0.559-0.558-1.117 0.558-1.675 0-2.234-0.559 0.558 0.558 1.117 0.558 2.234 1.117 0 0 0.558 0 0.558-0.558 0-0.558 0-1.117 0-1.117 0 0-0.558 0-1.117 0-0.558 0-1.117 0.558-1.675 0.558zM182.097 295.292c0-0.558-0.558-0.558-0.559-1.117-0.558-1.117 0-1.675 0.559-2.233 0.558-0.558 1.117-0.558 2.233-0.558 1.117 0.558 1.675 1.117 1.675 2.233 0 0.558 0 1.675 0 2.233 0.558 2.233 0.558 2.233 2.791 2.233 1.117 0 2.233 0 3.35 0 2.233-0.558 4.467-1.675 6.7-2.233 2.233-0.558 4.467-1.117 6.7-1.675 0.558 0 1.117 0 2.233 0 2.233 0.558 3.908 0 5.583-1.117 0.558-0.558 1.675-0.558 2.233-1.116 1.117-0.558 2.233-0.558 3.35-1.117 2.792-1.675 5.583-2.792 7.817-4.466 1.675-1.117 3.35-2.233 5.024-3.35 1.675-1.117 3.35-2.233 5.025-3.35 1.117-0.558 2.792-1.675 3.908-2.792 2.233-1.675 3.908-3.35 6.142-4.466 1.117-0.558 1.675-1.117 2.233-1.675 1.117-0.558 1.675-1.675 2.792-2.233 0.558-0.558 1.117-1.117 2.233-1.675 0.558-0.558 0.558-0.558 0.558-1.117 1.675-1.117 3.35-3.35 4.467-5.025 1.117-1.117 2.233-2.233 3.35-3.908 1.675-1.675 2.792-3.908 4.466-6.141 1.117-1.117 2.233-2.792 2.792-3.909 1.117-2.233 2.233-4.467 3.908-6.141v-0.558c1.117-2.233 2.233-4.467 3.35-6.7 1.675-2.792 2.792-6.141 4.466-8.933 0.558-1.117 1.117-2.233 1.117-3.35 1.117-2.233 1.675-4.467 2.233-6.7 0-0.558 0-0.558 0.559-1.116 1.675-3.35 2.792-6.7 3.349-10.608 0.558-2.233 1.117-4.467 1.675-6.7 1.117-3.35 1.117-6.141 1.675-9.491 0.558-2.233 0.558-5.025 0.559-7.258 0.558-3.35 0.558-7.258 0-10.608 0-2.792-0.558-6.141-0.559-8.933 0-2.792-0.558-5.025-1.116-7.817-0.558-2.792-1.117-5.025-1.675-7.816-1.117-2.233-1.675-4.467-2.234-7.258-0.558-2.233-1.675-3.908-1.674-6.142 0-1.675-0.558-3.35-2.234-3.908-1.675-0.558-2.792-1.117-4.466-2.233-3.35-2.233-5.025-5.025-4.467-8.375 0-1.675 0.558-3.908 1.117-5.583 0.558-1.675 1.117-3.35 0-4.467-0.558-1.675-1.675-2.792-2.233-3.908-1.117-1.675-1.675-2.792-2.792-3.908-1.117-2.233-2.233-4.467-3.908-6.141-2.233-2.792-3.908-5.583-6.7-7.817l-0.558-0.558c-1.675-2.233-3.35-4.467-5.583-6.142-1.117-1.117-2.233-2.233-3.35-2.791-0.558-0.558-1.117-1.117-2.233-1.675-1.675-1.117-3.35-1.675-4.467-2.792-1.675-1.675-3.908-2.792-5.583-3.908 0 0-0.558 0-0.558-0.558-2.233-1.117-3.908-1.675-6.142-2.792-2.233-1.117-4.467-1.675-6.7-1.675-0.558 0-0.558 0-1.116 0-0.558-0.558-1.675-0.558-2.233-0.558-0.558 0-0.558 0-1.117 0-1.117-0.558-2.792 0-3.908 0-2.233 0.558-4.467 0.558-6.7-0.558-2.792-1.117-5.025-2.233-7.258-3.35-1.675-1.117-2.792-2.233-4.467-3.35-3.35-2.792-6.7-6.141-10.608-8.933 0.558-2.792-0.558-3.35-2.791-3.35-1.117 0-2.233 0.558-3.35 1.117-0.558 0.558-0.558 0.558-1.117 1.116-1.675 1.117-2.792 2.792-4.466 3.909-2.792 1.675-3.908 1.117-6.142 0-0.558-0.558-1.117-1.117-1.675-1.675-1.117-1.117-2.233-2.792-2.791-3.909-1.117-2.233-3.35-2.233-5.583-2.233-1.117 0-2.792 0.558-3.908 0.558-2.233 0-4.467 1.117-5.584 2.792-1.117 1.675-2.233 3.35-3.908 5.025-0.558 0.558-1.675 1.117-2.233 2.233-1.117 1.117-2.233 1.117-3.35 0-0.558-0.558-1.117-0.558-1.675-1.117-0.558 0.558-1.117 1.117-1.117 1.675-0.558 1.117-1.117 2.233-1.674 3.909-0.558 1.675-1.675 3.35-2.792 4.466-0.558 0.558-0.558 0.558-1.117 1.117-0.558 1.117-2.233 1.675-3.35 1.675-1.117 1.117-2.233 2.792-2.791 3.908-0.558 1.117-1.117 2.233-1.675 3.908-0.558 0.558-0.558 1.675-1.117 2.233-0.558 1.117-0.558 1.675-0.558 2.792 0.558 1.675-0.558 2.233-2.233 2.791-1.117 0-1.117 0-1.675 1.117 0 1.675 0.558 2.792 1.116 4.467 0.558 0.558 1.117 1.675 1.117 2.233 0 1.117 0.558 1.675 1.675 2.233 0.558 0.558 1.117 1.117 1.675 1.117 0.558 0 0.558 0.558 1.117 0.558 0.558 0.558 1.117 0 1.116-0.558 0.558-1.675 1.117-3.35 1.117-5.025 0.558-2.233 0.558-3.908 1.116-6.142 0.558-1.117 1.117-1.675 1.675-2.233 0 0 0.558 0 1.117 0v0.559c-0.558 2.792-1.675 6.141-2.233 8.933-0.558 1.117-0.558 2.233-1.117 3.349 0 0.558-0.558 1.117-1.116 1.117-1.117 0.558-2.233 1.117-3.35 1.117-0.558 0-1.117 0-1.675 0-1.117-0.558-2.233-1.675-3.35-2.234-0.558-0.558-1.117-1.117-1.675-1.674-0.558-1.117-1.117-2.233-1.675-3.35-0.558-1.117-1.117-1.675-2.233-2.234-0.558-0.558-1.117-0.558-1.675-1.116-1.117-1.117-2.233-1.675-3.908-1.675-0.558 0-1.675 0-2.234 0-0.558 0-1.675 0.558-2.233 1.116-1.117 0.558-1.675 0.558-2.791 0-2.792-1.117-5.583-0.558-8.375 0.559-1.117 0.558-2.233 1.117-3.35 1.116-2.792 0-5.025 0-7.816 0-2.792 0-5.025-0.558-7.817-1.116-1.117 0-2.233 0-3.35 0-2.233 0.558-2.792 2.233-2.233 4.466 0.558 2.233 1.117 5.025 1.117 7.258 0 1.675 0 3.35 0 5.025 0 1.117 0 1.675 0 2.792 0 1.675-0.558 3.35-0.559 5.025-0.558 3.35-2.233 6.141-4.466 8.374-1.675 1.675-3.908 3.35-6.142 3.908-1.117 0.558-2.233 1.117-3.908 1.675-2.792 1.117-5.025 3.35-6.7 6.142-0.558 1.117-1.117 2.233-1.674 3.35-1.117 1.675-1.675 2.792-2.792 4.466-0.558 1.117-1.675 2.233-2.233 3.35-0.558 1.117-1.675 1.675-1.675 2.792-1.117 2.233-1.675 4.467-2.792 6.699-0.558 1.117-0.558 2.792-1.116 3.909-1.117 2.233-1.117 4.467-1.117 7.258 0 0.558 0 1.117 0 2.233 0 2.792-0.558 6.141-0.558 8.933 0 2.792 0 5.583 0.558 8.375 0 1.117 0 2.792 0 3.908 0 2.233 0.558 5.025 0.558 7.258 0 2.233 0 5.025 1.117 7.258v0.558c0.558 2.233 0.558 4.467 1.116 6.7 0 0.558 0 1.117 0.559 1.675 1.117 3.35 1.675 6.141 2.791 9.491 0.558 2.233 1.675 4.467 2.234 6.7 0.558 2.233 2.792 4.467 3.349 7.258v0c1.675 3.35 3.35 6.7 5.584 10.05 0.558 1.117 1.675 2.233 2.233 3.35 1.117 1.675 1.675 3.35 2.791 4.466 0.558 1.117 1.675 2.233 2.234 2.792 0.558 1.117 1.117 2.233 2.233 3.35 1.117 1.117 2.233 2.792 3.35 3.908 1.675 2.792 3.908 5.025 6.141 6.7 1.117 1.117 2.233 1.675 3.35 2.791 0.558 0.558 1.117 0.558 1.117 1.117 0.558 0.558 1.117 1.117 2.233 1.675 4.467 2.233 7.816 5.583 11.725 8.933 1.675 1.675 3.35 3.35 5.583 4.466 2.233 1.675 3.908 3.35 6.7 3.908 0 0 0.558 0 0.558 0.559 1.117 1.117 2.792 1.675 3.908 2.233 2.233 1.117 5.025 2.233 7.258 3.35 0.558 0.558 1.675 0.558 2.233 1.117 1.675 0.558 3.35 1.117 5.025 1.674 1.675 0.558 2.792 1.117 4.467 1.117h0.558c1.117 0.558 1.675 0.558 2.792 0 0.558 0 1.117 0 1.116 0.558 0 0.558 0.558 0.558 1.117 0.559 0.558 0 1.117 0 2.233 0 0.558-0.558 0.558-1.117 1.117-2.234 0.558 0.558 1.117 0.558 1.116 0.559 0.558 1.117 1.675 1.117 2.792 1.116h0.558c1.117 0 1.675 0 2.233-0.558 0-0.558 1.117-0.558 1.675-0.558 1.675 0.558 3.35 0.558 5.025 1.116 1.117 0.558 2.792 0.558 3.35-0.558 0.558-0.558 1.117-1.117 2.233-0.558 1.117 0.558 1.675 0.558 2.792 0 0.558 0 1.117 0 1.117 0 1.675 0.558 2.792 0.558 4.466 1.116 2.233 0.558 2.233 0.558 3.908-1.116 0.558-0.558 1.675-0.558 2.233 0 0.558 1.117 0.558 1.675 0.559 2.791 0.558 0 0.558 0 1.116-0.558 0-1.117 0.558-1.117 1.675-1.675 0.558 0.558 0.558 0.558 1.117 0.558 1.117 1.117 1.675 1.117 2.233-0.558 0-0.558 0-1.117 0.559-1.116 0.558 0 1.117 0.558 1.116 0.558 0.558 1.117 1.675 1.675 2.233 2.791 1.117 1.117 2.792 1.117 3.35 0 0.558-0.558 1.117-0.558 1.675-0.558 0-0.558 0-1.117 0-1.675 1.675 1.117 1.117 1.117 0.559 1.117zM89.417 34.559c1.675 0.558 2.792 0.558 3.349-0.558-1.117 0.558-2.233-0.558-3.349 0.558z"
                  fill="#336a86" fill-rule="nonzero" stroke="none" stroke-width="1" stroke-linecap="butt"
                  stroke-linejoin="miter" stroke-miterlimit="10" stroke-dasharray="" stroke-dashoffset="0"
                  font-family="none" font-weight="none" font-size="none" text-anchor="none"
                  style="mix-blend-mode: normal" data-fill-palette-color="tertiary"></path>
              </g>
              <g transform="matrix(1,0,0,1,64,110.9169897010449)"><svg viewBox="0 0 192 138.1660205979102"
                  height="138.1660205979102" width="192">
                  <g><svg viewBox="0 0 192 138.1660205979102" height="138.1660205979102" width="192">
                      <g><svg viewBox="0 0 192 138.1660205979102" height="138.1660205979102" width="192">
                          <g><svg viewBox="0 0 192 138.1660205979102" height="138.1660205979102" width="192">
                              <g id="textblocktransform"><svg viewBox="0 0 192 138.1660205979102"
                                  height="138.1660205979102" width="192" id="textblock">
                                  <g><svg viewBox="0 0 192 89.75609756097562" height="89.75609756097562" width="192">
                                      <g transform="matrix(1,0,0,1,0,0)"><svg width="192"
                                          viewBox="2.25 -28.75 61.5 28.75" height="89.75609756097562"
                                          data-palette-color="#336a86">
                                          <path
                                            d="M16.35-14.1L16.35-14.1 16.35-9.6Q14.45-11.05 11.7-11.05L11.7-11.05Q9.35-11.05 8.05-10.13 6.75-9.2 6.75-7.5L6.75-7.5Q6.75-4.2 11.65-4.2L11.65-4.2 18.25-4.2 18.25-13.75Q18.25-19.8 12.35-19.8L12.35-19.8 4.35-19.8 4.35-24 12.6-24Q17.45-24 20.05-21.6 22.65-19.2 22.65-14.7L22.65-14.7 22.65 0 11.5 0Q7.25 0 4.75-1.9 2.25-3.8 2.25-7.45 2.25-11.1 4.9-13 7.55-14.9 11.55-14.9L11.55-14.9Q13.8-14.9 16.35-14.1ZM30.1-19.8L25.65-19.8 34.6-28.75 34.6-24 41.35-24 41.35-19.8 34.6-19.8 34.6-9.5Q34.6-7.75 35.17-6.6 35.75-5.45 36.85-4.98 37.95-4.5 38.92-4.35 39.9-4.2 41.35-4.2L41.35-4.2 41.35 0Q35.6 0 32.85-2.2 30.1-4.4 30.1-9.5L30.1-9.5 30.1-19.8ZM53.89-24L62.75-24 62.75-19.8 53.89-19.8Q52.45-19.8 51.39-19.25 50.34-18.7 50.34-17.7L50.34-17.7Q50.34-17.1 50.59-16.63 50.84-16.15 51.17-15.85 51.49-15.55 52.17-15.23 52.84-14.9 53.22-14.78 53.59-14.65 56.39-13.75 59.2-12.85 60.55-12.25 61.89-11.65 62.62-10.63 63.34-9.6 63.55-8.63 63.75-7.65 63.75-6.7L63.75-6.7Q63.75 0 54.55 0L54.55 0 45.89 0 45.89-4.2 54.55-4.2Q59.25-4.2 59.25-6.7L59.25-6.7Q59.25-7.9 57.87-8.7 56.49-9.5 54.52-10.05 52.55-10.6 50.57-11.33 48.59-12.05 47.22-13.68 45.84-15.3 45.84-17.7L45.84-17.7Q45.84-20.75 48.2-22.38 50.55-24 53.89-24L53.89-24Z"
                                            opacity="1" transform="matrix(1,0,0,1,0,0)" fill="#336a86"
                                            class="wordmark-text-0" data-fill-palette-color="primary" id="text-0">
                                          </path>
                                        </svg></g>
                                    </svg></g>
                                  <g transform="matrix(1,0,0,1,0,110.94535804878049)"><svg
                                      viewBox="0 0 192 27.220662549129703" height="27.220662549129703" width="192">
                                      <g transform="matrix(1,0,0,1,0,0)"><svg width="192"
                                          viewBox="-0.1 -39.65 356.16 50.5" height="27.220662549129703"
                                          data-palette-color="#8eaec4">
                                          <path
                                            d="M24.95 0L18.5 0 16.8-8.1 7.9-8.1 6.25 0-0.1 0 8.6-34.55 16.3-34.55 24.95 0ZM12.35-29.7L8.9-12.9 15.85-12.9 12.35-29.7ZM40.65-37.7L46.8-37.05 46.8 0 41.35 0 41.05-3.05Q38.7 0.75 35 0.75L35 0.75Q30.9 0.75 28.72-2.93 26.55-6.6 26.55-13.2L26.55-13.2Q26.55-17.4 27.67-20.58 28.8-23.75 30.8-25.45 32.8-27.15 35.4-27.15L35.4-27.15Q38.6-27.15 40.65-24.5L40.65-24.5 40.65-37.7ZM36.75-3.9Q37.9-3.9 38.82-4.7 39.75-5.5 40.65-7L40.65-7 40.65-19.85Q39.05-22.55 37-22.55L37-22.55Q32.95-22.55 32.95-13.25L32.95-13.25Q32.95-8.2 33.95-6.05 34.95-3.9 36.75-3.9L36.75-3.9ZM69.4-6.4Q69.4-5.1 69.75-4.48 70.09-3.85 70.9-3.45L70.9-3.45 69.65 0.65Q67.59 0.4 66.37-0.45 65.15-1.3 64.55-3.05L64.55-3.05Q62.25 0.75 58.1 0.75L58.1 0.75Q54.8 0.75 52.85-1.48 50.9-3.7 50.9-7.4L50.9-7.4Q50.9-11.7 53.57-13.95 56.25-16.2 61.35-16.2L61.35-16.2 63.4-16.2 63.4-18.05Q63.4-20.55 62.52-21.58 61.65-22.6 59.7-22.6L59.7-22.6Q57.35-22.6 53.85-21.3L53.85-21.3 52.45-25.3Q54.45-26.2 56.6-26.68 58.75-27.15 60.7-27.15L60.7-27.15Q69.4-27.15 69.4-18.35L69.4-18.35 69.4-6.4ZM59.75-3.7Q62.15-3.7 63.4-7L63.4-7 63.4-12.55 61.95-12.55Q59.4-12.55 58.22-11.4 57.05-10.25 57.05-7.85L57.05-7.85Q57.05-5.8 57.75-4.75 58.45-3.7 59.75-3.7L59.75-3.7ZM93.84-26.45L86.84 0.1Q85.54 4.9 82.64 7.65 79.74 10.4 74.89 10.85L74.89 10.85 74.19 6.5Q77.34 5.85 78.92 4.42 80.49 3 81.39 0L81.39 0 79.09 0 72.39-26.45 78.64-26.45 83.04-4.1 87.74-26.45 93.84-26.45ZM104.14-34.55L125.69-34.55 124.99-29.55 117.89-29.55 117.89 0 111.54 0 111.54-29.55 104.14-29.55 104.14-34.55ZM145.49-6.4Q145.49-5.1 145.84-4.48 146.19-3.85 146.99-3.45L146.99-3.45 145.74 0.65Q143.69 0.4 142.46-0.45 141.24-1.3 140.64-3.05L140.64-3.05Q138.34 0.75 134.19 0.75L134.19 0.75Q130.89 0.75 128.94-1.48 126.99-3.7 126.99-7.4L126.99-7.4Q126.99-11.7 129.66-13.95 132.34-16.2 137.44-16.2L137.44-16.2 139.49-16.2 139.49-18.05Q139.49-20.55 138.61-21.58 137.74-22.6 135.79-22.6L135.79-22.6Q133.44-22.6 129.94-21.3L129.94-21.3 128.54-25.3Q130.54-26.2 132.69-26.68 134.84-27.15 136.79-27.15L136.79-27.15Q145.49-27.15 145.49-18.35L145.49-18.35 145.49-6.4ZM135.84-3.7Q138.24-3.7 139.49-7L139.49-7 139.49-12.55 138.04-12.55Q135.49-12.55 134.31-11.4 133.14-10.25 133.14-7.85L133.14-7.85Q133.14-5.8 133.84-4.75 134.54-3.7 135.84-3.7L135.84-3.7ZM151.28-37.05L157.43-37.7 157.43 0 151.28 0 151.28-37.05ZM164.78-26.45L170.78-26.45 163.78-14.75 171.38 0 164.78 0 157.68-14.45 164.78-26.45ZM173.93-26.45L180.08-26.45 180.08 0 173.93 0 173.93-26.45ZM176.98-39.65Q178.63-39.65 179.66-38.6 180.68-37.55 180.68-35.9L180.68-35.9Q180.68-34.3 179.66-33.25 178.63-32.2 176.98-32.2L176.98-32.2Q175.33-32.2 174.31-33.25 173.28-34.3 173.28-35.9L173.28-35.9Q173.28-37.55 174.31-38.6 175.33-39.65 176.98-39.65L176.98-39.65ZM197.98-27.15Q201.88-27.15 203.88-23.58 205.88-20 205.88-13.3L205.88-13.3Q205.88-6.8 203.6-3.03 201.33 0.75 197.28 0.75L197.28 0.75Q194.08 0.75 191.93-2.1L191.93-2.1 191.93 10.15 185.78 10.85 185.78-26.45 191.23-26.45 191.48-23.25Q192.78-25.25 194.38-26.2 195.98-27.15 197.98-27.15L197.98-27.15ZM195.63-3.95Q197.53-3.95 198.53-6.13 199.53-8.3 199.53-13.25L199.53-13.25Q199.53-18.45 198.68-20.5 197.83-22.55 196.03-22.55L196.03-22.55Q193.73-22.55 191.93-19.25L191.93-19.25 191.93-6.45Q193.53-3.95 195.63-3.95L195.63-3.95ZM229.22-35.25Q232.22-35.25 234.52-34.2 236.82-33.15 238.77-31.05L238.77-31.05 235.82-27.65Q234.27-29.05 232.8-29.75 231.32-30.45 229.67-30.45L229.67-30.45Q227.77-30.45 226.67-29.28 225.57-28.1 225.57-26.2L225.57-26.2Q225.57-24.3 226.72-23.1 227.87-21.9 231.22-20.6L231.22-20.6Q235.52-18.85 237.55-16.5 239.57-14.15 239.57-9.85L239.57-9.85Q239.57-6.9 238.22-4.48 236.87-2.05 234.35-0.65 231.82 0.75 228.47 0.75L228.47 0.75Q225.02 0.75 222.47-0.48 219.92-1.7 217.82-3.95L217.82-3.95 221.02-7.45Q222.82-5.85 224.47-5 226.12-4.15 228.07-4.15L228.07-4.15Q230.37-4.15 231.65-5.58 232.92-7 232.92-9.45L232.92-9.45Q232.92-11.6 231.8-12.98 230.67-14.35 227.62-15.5L227.62-15.5Q223.02-17.35 221-19.75 218.97-22.15 218.97-25.75L218.97-25.75Q218.97-28.5 220.3-30.65 221.62-32.8 223.97-34.02 226.32-35.25 229.22-35.25L229.22-35.25ZM243.57-26.45L249.72-26.45 249.72 0 243.57 0 243.57-26.45ZM246.62-39.65Q248.27-39.65 249.29-38.6 250.32-37.55 250.32-35.9L250.32-35.9Q250.32-34.3 249.29-33.25 248.27-32.2 246.62-32.2L246.62-32.2Q244.97-32.2 243.94-33.25 242.92-34.3 242.92-35.9L242.92-35.9Q242.92-37.55 243.94-38.6 244.97-39.65 246.62-39.65L246.62-39.65ZM262.77-27.15Q267.47-27.15 270.72-24.05L270.72-24.05 268.37-20.7Q266.97-21.7 265.72-22.2 264.47-22.7 263.17-22.7L263.17-22.7Q261.72-22.7 260.89-21.93 260.07-21.15 260.07-19.8L260.07-19.8Q260.07-18.45 260.99-17.63 261.92-16.8 264.72-15.7L264.72-15.7Q268.17-14.35 269.82-12.5 271.47-10.65 271.47-7.55L271.47-7.55Q271.47-3.7 268.77-1.48 266.07 0.75 261.92 0.75L261.92 0.75Q259.22 0.75 256.94-0.23 254.67-1.2 252.97-2.95L252.97-2.95 255.97-6.25Q258.77-3.8 261.67-3.8L261.67-3.8Q263.32-3.8 264.27-4.67 265.22-5.55 265.22-7.1L265.22-7.1Q265.22-8.25 264.82-8.97 264.42-9.7 263.42-10.33 262.42-10.95 260.42-11.7L260.42-11.7Q256.97-13.05 255.49-14.85 254.02-16.65 254.02-19.45L254.02-19.45Q254.02-22.8 256.39-24.98 258.77-27.15 262.77-27.15L262.77-27.15ZM286.46-5L288.61-1.2Q286.16 0.75 282.86 0.75L282.86 0.75Q279.41 0.75 277.61-1.23 275.81-3.2 275.81-6.6L275.81-6.6 275.81-22 272.71-22 272.71-26.45 275.81-26.45 275.81-32.3 281.96-33.05 281.96-26.45 286.96-26.45 286.36-22 281.96-22 281.96-6.6Q281.96-4.2 284.01-4.2L284.01-4.2Q284.66-4.2 285.16-4.38 285.66-4.55 286.46-5L286.46-5ZM310.01-13.85Q310.01-13.4 309.86-11.3L309.86-11.3 296.21-11.3Q296.41-7.2 297.64-5.58 298.86-3.95 301.11-3.95L301.11-3.95Q302.66-3.95 303.91-4.48 305.16-5 306.61-6.15L306.61-6.15 309.16-2.65Q305.66 0.75 300.76 0.75L300.76 0.75Q295.56 0.75 292.79-2.85 290.01-6.45 290.01-13L290.01-13Q290.01-19.55 292.66-23.35 295.31-27.15 300.16-27.15L300.16-27.15Q304.81-27.15 307.41-23.78 310.01-20.4 310.01-13.85L310.01-13.85ZM304.01-15.3L304.01-15.65Q304.01-19.4 303.11-21.13 302.21-22.85 300.21-22.85L300.21-22.85Q298.36-22.85 297.39-21.18 296.41-19.5 296.21-15.3L296.21-15.3 304.01-15.3ZM337.96-27.15Q340.61-27.15 342.21-25.1 343.81-23.05 343.81-19.6L343.81-19.6 343.81 0 337.76 0 337.76-18.95Q337.76-20.85 337.26-21.68 336.76-22.5 335.81-22.5L335.81-22.5Q333.86-22.5 332.06-18.8L332.06-18.8 332.06 0 326.06 0 326.06-18.95Q326.06-22.5 324.16-22.5L324.16-22.5Q322.11-22.5 320.36-18.8L320.36-18.8 320.36 0 314.31 0 314.31-26.45 319.66-26.45 320.06-23.05Q322.66-27.15 326.31-27.15L326.31-27.15Q328.16-27.15 329.51-26 330.86-24.85 331.56-22.75L331.56-22.75Q334.21-27.15 337.96-27.15L337.96-27.15ZM349.31-26.45L355.46-26.45 355.46 0 349.31 0 349.31-26.45ZM352.36-39.65Q354.01-39.65 355.03-38.6 356.06-37.55 356.06-35.9L356.06-35.9Q356.06-34.3 355.03-33.25 354.01-32.2 352.36-32.2L352.36-32.2Q350.71-32.2 349.68-33.25 348.66-34.3 348.66-35.9L348.66-35.9Q348.66-37.55 349.68-38.6 350.71-39.65 352.36-39.65L352.36-39.65Z"
                                            opacity="1" transform="matrix(1,0,0,1,0,0)" fill="#8eaec4"
                                            class="slogan-text-1" data-fill-palette-color="secondary" id="text-1">
                                          </path>
                                        </svg></g>
                                    </svg></g>
                                </svg></g>
                            </svg></g>
                        </svg></g>
                    </svg></g>
                </svg></g>
            </svg></g>
          <defs></defs>
        </svg>
        <rect width="320" height="360" fill="none" stroke="none" visibility="hidden"></rect>
      </g>
    </svg></g>
</svg>