<svg xmlns="http://www.w3.org/2000/svg" version="1.1" xmlns:xlink="http://www.w3.org/1999/xlink"
  xmlns:svgjs="http://svgjs.dev/svgjs" width="2000" height="1252" viewBox="0 0 2000 1252">
  <g transform="matrix(1,0,0,1,-1.2121212121212466,-2.01935483870966)"><svg viewBox="0 0 396 248"
      data-background-color="#ffffff" preserveAspectRatio="xMidYMid meet" height="1252" width="2000"
      xmlns="http://www.w3.org/2000/svg" xmlns:xlink="http://www.w3.org/1999/xlink">
      <g id="tight-bounds" transform="matrix(1,0,0,1,0.2400000000000091,0.4000000000000057)"><svg
          viewBox="0 0 395.52 247.2" height="247.2" width="395.52">
          <g><svg></svg></g>
          <g><svg viewBox="0 0 395.52 247.2" height="247.2" width="395.52">
              <g transform="matrix(1,0,0,1,75.54432,66.46665365853659)"><svg
                  viewBox="0 0 244.43135999999998 114.26669268292682" height="114.26669268292682"
                  width="244.43135999999998">
                  <g><svg viewBox="0 0 244.43135999999998 114.26669268292682" height="114.26669268292682"
                      width="244.43135999999998">
                      <g><svg viewBox="0 0 244.43135999999998 114.26669268292682" height="114.26669268292682"
                          width="244.43135999999998">
                          <g id="textblocktransform"><svg viewBox="0 0 244.43135999999998 114.26669268292682"
                              height="114.26669268292682" width="244.43135999999998" id="textblock">
                              <g><svg viewBox="0 0 244.43135999999998 114.26669268292682" height="114.26669268292682"
                                  width="244.43135999999998">
                                  <g transform="matrix(1,0,0,1,0,0)"><svg width="244.43135999999998"
                                      viewBox="2.25 -28.75 61.5 28.75" height="114.26669268292682"
                                      data-palette-color="#336a86">
                                      <path
                                        d="M16.35-14.1L16.35-14.1 16.35-9.6Q14.45-11.05 11.7-11.05L11.7-11.05Q9.35-11.05 8.05-10.13 6.75-9.2 6.75-7.5L6.75-7.5Q6.75-4.2 11.65-4.2L11.65-4.2 18.25-4.2 18.25-13.75Q18.25-19.8 12.35-19.8L12.35-19.8 4.35-19.8 4.35-24 12.6-24Q17.45-24 20.05-21.6 22.65-19.2 22.65-14.7L22.65-14.7 22.65 0 11.5 0Q7.25 0 4.75-1.9 2.25-3.8 2.25-7.45 2.25-11.1 4.9-13 7.55-14.9 11.55-14.9L11.55-14.9Q13.8-14.9 16.35-14.1ZM30.1-19.8L25.65-19.8 34.6-28.75 34.6-24 41.35-24 41.35-19.8 34.6-19.8 34.6-9.5Q34.6-7.75 35.17-6.6 35.75-5.45 36.85-4.98 37.95-4.5 38.92-4.35 39.9-4.2 41.35-4.2L41.35-4.2 41.35 0Q35.6 0 32.85-2.2 30.1-4.4 30.1-9.5L30.1-9.5 30.1-19.8ZM53.89-24L62.75-24 62.75-19.8 53.89-19.8Q52.45-19.8 51.39-19.25 50.34-18.7 50.34-17.7L50.34-17.7Q50.34-17.1 50.59-16.63 50.84-16.15 51.17-15.85 51.49-15.55 52.17-15.23 52.84-14.9 53.22-14.78 53.59-14.65 56.39-13.75 59.2-12.85 60.55-12.25 61.89-11.65 62.62-10.63 63.34-9.6 63.55-8.63 63.75-7.65 63.75-6.7L63.75-6.7Q63.75 0 54.55 0L54.55 0 45.89 0 45.89-4.2 54.55-4.2Q59.25-4.2 59.25-6.7L59.25-6.7Q59.25-7.9 57.87-8.7 56.49-9.5 54.52-10.05 52.55-10.6 50.57-11.33 48.59-12.05 47.22-13.68 45.84-15.3 45.84-17.7L45.84-17.7Q45.84-20.75 48.2-22.38 50.55-24 53.89-24L53.89-24Z"
                                        opacity="1" transform="matrix(1,0,0,1,0,0)" fill="#336a86"
                                        class="wordmark-text-0" data-fill-palette-color="primary" id="text-0"></path>
                                    </svg></g>
                                </svg></g>
                            </svg></g>
                        </svg></g>
                    </svg></g>
                </svg></g>
              <path
                d="M235.575 60.467L235.575 11.532 11.439 11.532 11.439 235.668 235.575 235.668 235.575 186.733 225.271 186.733 225.271 225.364 21.744 225.364 21.744 21.836 225.271 21.836 225.271 60.467Z"
                fill="#336a86" stroke="transparent" data-fill-palette-color="tertiary"></path>
            </svg></g>
          <defs></defs>
        </svg>
        <rect width="395.52" height="247.2" fill="none" stroke="none" visibility="hidden"></rect>
      </g>
    </svg></g>
</svg>