<svg xmlns="http://www.w3.org/2000/svg" version="1.1" xmlns:xlink="http://www.w3.org/1999/xlink"
  xmlns:svgjs="http://svgjs.dev/svgjs" width="2000" height="1441" viewBox="0 0 2000 1441">
  <g transform="matrix(1,0,0,1,-1.403583701804223,-2.324193548387143)"><svg viewBox="0 0 344 248"
      data-background-color="#ffffff" preserveAspectRatio="xMidYMid meet" height="1441" width="2000"
      xmlns="http://www.w3.org/2000/svg" xmlns:xlink="http://www.w3.org/1999/xlink">
      <g id="tight-bounds" transform="matrix(1,0,0,1,0.24141639671032067,0.4000000000000057)"><svg
          viewBox="0 0 343.51716720657936 247.2" height="247.2" width="343.51716720657936">
          <g><svg viewBox="0 0 343.51716720657936 247.2" height="247.2" width="343.51716720657936">
              <g><svg viewBox="0 0 395.52 284.62200243169497" height="247.2" width="343.51716720657936">
                  <g><svg viewBox="0 0 395.52 284.62200243169497" height="284.62200243169497" width="395.52">
                      <g id="textblocktransform"><svg viewBox="0 0 395.52 284.62200243169497"
                          height="284.62200243169497" width="395.52" id="textblock">
                          <g><svg viewBox="0 0 395.52 184.89756097560974" height="184.89756097560974" width="395.52">
                              <g transform="matrix(1,0,0,1,0,0)"><svg width="395.52" viewBox="2.25 -28.75 61.5 28.75"
                                  height="184.89756097560974" data-palette-color="#336a86">
                                  <path
                                    d="M16.35-14.1L16.35-14.1 16.35-9.6Q14.45-11.05 11.7-11.05L11.7-11.05Q9.35-11.05 8.05-10.13 6.75-9.2 6.75-7.5L6.75-7.5Q6.75-4.2 11.65-4.2L11.65-4.2 18.25-4.2 18.25-13.75Q18.25-19.8 12.35-19.8L12.35-19.8 4.35-19.8 4.35-24 12.6-24Q17.45-24 20.05-21.6 22.65-19.2 22.65-14.7L22.65-14.7 22.65 0 11.5 0Q7.25 0 4.75-1.9 2.25-3.8 2.25-7.45 2.25-11.1 4.9-13 7.55-14.9 11.55-14.9L11.55-14.9Q13.8-14.9 16.35-14.1ZM30.1-19.8L25.65-19.8 34.6-28.75 34.6-24 41.35-24 41.35-19.8 34.6-19.8 34.6-9.5Q34.6-7.75 35.17-6.6 35.75-5.45 36.85-4.98 37.95-4.5 38.92-4.35 39.9-4.2 41.35-4.2L41.35-4.2 41.35 0Q35.6 0 32.85-2.2 30.1-4.4 30.1-9.5L30.1-9.5 30.1-19.8ZM53.89-24L62.75-24 62.75-19.8 53.89-19.8Q52.45-19.8 51.39-19.25 50.34-18.7 50.34-17.7L50.34-17.7Q50.34-17.1 50.59-16.63 50.84-16.15 51.17-15.85 51.49-15.55 52.17-15.23 52.84-14.9 53.22-14.78 53.59-14.65 56.39-13.75 59.2-12.85 60.55-12.25 61.89-11.65 62.62-10.63 63.34-9.6 63.55-8.63 63.75-7.65 63.75-6.7L63.75-6.7Q63.75 0 54.55 0L54.55 0 45.89 0 45.89-4.2 54.55-4.2Q59.25-4.2 59.25-6.7L59.25-6.7Q59.25-7.9 57.87-8.7 56.49-9.5 54.52-10.05 52.55-10.6 50.57-11.33 48.59-12.05 47.22-13.68 45.84-15.3 45.84-17.7L45.84-17.7Q45.84-20.75 48.2-22.38 50.55-24 53.89-24L53.89-24Z"
                                    opacity="1" transform="matrix(1,0,0,1,0,0)" fill="#336a86" class="wordmark-text-0"
                                    data-fill-palette-color="primary" id="text-0"></path>
                                </svg></g>
                            </svg></g>
                          <g transform="matrix(1,0,0,1,0,228.54743758048778)"><svg
                              viewBox="0 0 395.52 56.07456485120718" height="56.07456485120718" width="395.52">
                              <g transform="matrix(1,0,0,1,0,0)"><svg width="395.52"
                                  viewBox="-0.1 -39.65 356.20000000000005 50.5" height="56.07456485120718"
                                  data-palette-color="#8eaec4">
                                  <path
                                    d="M24.95 0L18.5 0 16.8-8.1 7.9-8.1 6.25 0-0.1 0 8.6-34.55 16.3-34.55 24.95 0ZM12.35-29.7L8.9-12.9 15.85-12.9 12.35-29.7ZM40.65-37.7L46.8-37.05 46.8 0 41.35 0 41.05-3.05Q38.7 0.75 35 0.75L35 0.75Q30.9 0.75 28.73-2.93 26.55-6.6 26.55-13.2L26.55-13.2Q26.55-17.4 27.68-20.58 28.8-23.75 30.8-25.45 32.8-27.15 35.4-27.15L35.4-27.15Q38.6-27.15 40.65-24.5L40.65-24.5 40.65-37.7ZM36.75-3.9Q37.9-3.9 38.83-4.7 39.75-5.5 40.65-7L40.65-7 40.65-19.85Q39.05-22.55 37-22.55L37-22.55Q32.95-22.55 32.95-13.25L32.95-13.25Q32.95-8.2 33.95-6.05 34.95-3.9 36.75-3.9L36.75-3.9ZM69.4-6.4Q69.4-5.1 69.75-4.48 70.1-3.85 70.9-3.45L70.9-3.45 69.65 0.65Q67.6 0.4 66.38-0.45 65.15-1.3 64.55-3.05L64.55-3.05Q62.25 0.75 58.1 0.75L58.1 0.75Q54.8 0.75 52.85-1.48 50.9-3.7 50.9-7.4L50.9-7.4Q50.9-11.7 53.58-13.95 56.25-16.2 61.35-16.2L61.35-16.2 63.4-16.2 63.4-18.05Q63.4-20.55 62.53-21.58 61.65-22.6 59.7-22.6L59.7-22.6Q57.35-22.6 53.85-21.3L53.85-21.3 52.45-25.3Q54.45-26.2 56.6-26.68 58.75-27.15 60.7-27.15L60.7-27.15Q69.4-27.15 69.4-18.35L69.4-18.35 69.4-6.4ZM59.75-3.7Q62.15-3.7 63.4-7L63.4-7 63.4-12.55 61.95-12.55Q59.4-12.55 58.23-11.4 57.05-10.25 57.05-7.85L57.05-7.85Q57.05-5.8 57.75-4.75 58.45-3.7 59.75-3.7L59.75-3.7ZM93.85-26.45L86.85 0.1Q85.55 4.9 82.65 7.65 79.75 10.4 74.9 10.85L74.9 10.85 74.2 6.5Q77.35 5.85 78.93 4.42 80.5 3 81.4 0L81.4 0 79.1 0 72.4-26.45 78.65-26.45 83.05-4.1 87.75-26.45 93.85-26.45ZM104.15-34.55L125.7-34.55 125-29.55 117.9-29.55 117.9 0 111.55 0 111.55-29.55 104.15-29.55 104.15-34.55ZM145.5-6.4Q145.5-5.1 145.85-4.48 146.2-3.85 147-3.45L147-3.45 145.75 0.65Q143.7 0.4 142.47-0.45 141.25-1.3 140.65-3.05L140.65-3.05Q138.35 0.75 134.2 0.75L134.2 0.75Q130.9 0.75 128.95-1.48 127-3.7 127-7.4L127-7.4Q127-11.7 129.68-13.95 132.35-16.2 137.45-16.2L137.45-16.2 139.5-16.2 139.5-18.05Q139.5-20.55 138.63-21.58 137.75-22.6 135.8-22.6L135.8-22.6Q133.45-22.6 129.95-21.3L129.95-21.3 128.55-25.3Q130.55-26.2 132.7-26.68 134.85-27.15 136.8-27.15L136.8-27.15Q145.5-27.15 145.5-18.35L145.5-18.35 145.5-6.4ZM135.85-3.7Q138.25-3.7 139.5-7L139.5-7 139.5-12.55 138.05-12.55Q135.5-12.55 134.32-11.4 133.15-10.25 133.15-7.85L133.15-7.85Q133.15-5.8 133.85-4.75 134.55-3.7 135.85-3.7L135.85-3.7ZM151.3-37.05L157.45-37.7 157.45 0 151.3 0 151.3-37.05ZM164.8-26.45L170.8-26.45 163.8-14.75 171.4 0 164.8 0 157.7-14.45 164.8-26.45ZM173.95-26.45L180.1-26.45 180.1 0 173.95 0 173.95-26.45ZM177-39.65Q178.65-39.65 179.67-38.6 180.7-37.55 180.7-35.9L180.7-35.9Q180.7-34.3 179.67-33.25 178.65-32.2 177-32.2L177-32.2Q175.35-32.2 174.32-33.25 173.3-34.3 173.3-35.9L173.3-35.9Q173.3-37.55 174.32-38.6 175.35-39.65 177-39.65L177-39.65ZM198-27.15Q201.9-27.15 203.9-23.58 205.9-20 205.9-13.3L205.9-13.3Q205.9-6.8 203.63-3.03 201.35 0.75 197.3 0.75L197.3 0.75Q194.1 0.75 191.95-2.1L191.95-2.1 191.95 10.15 185.8 10.85 185.8-26.45 191.25-26.45 191.5-23.25Q192.8-25.25 194.4-26.2 196-27.15 198-27.15L198-27.15ZM195.65-3.95Q197.55-3.95 198.55-6.13 199.55-8.3 199.55-13.25L199.55-13.25Q199.55-18.45 198.7-20.5 197.85-22.55 196.05-22.55L196.05-22.55Q193.75-22.55 191.95-19.25L191.95-19.25 191.95-6.45Q193.55-3.95 195.65-3.95L195.65-3.95ZM229.25-35.25Q232.25-35.25 234.55-34.2 236.85-33.15 238.8-31.05L238.8-31.05 235.85-27.65Q234.3-29.05 232.82-29.75 231.35-30.45 229.7-30.45L229.7-30.45Q227.8-30.45 226.7-29.28 225.6-28.1 225.6-26.2L225.6-26.2Q225.6-24.3 226.75-23.1 227.9-21.9 231.25-20.6L231.25-20.6Q235.55-18.85 237.57-16.5 239.6-14.15 239.6-9.85L239.6-9.85Q239.6-6.9 238.25-4.48 236.9-2.05 234.37-0.65 231.85 0.75 228.5 0.75L228.5 0.75Q225.05 0.75 222.5-0.48 219.95-1.7 217.85-3.95L217.85-3.95 221.05-7.45Q222.85-5.85 224.5-5 226.15-4.15 228.1-4.15L228.1-4.15Q230.4-4.15 231.67-5.58 232.95-7 232.95-9.45L232.95-9.45Q232.95-11.6 231.82-12.98 230.7-14.35 227.65-15.5L227.65-15.5Q223.05-17.35 221.02-19.75 219-22.15 219-25.75L219-25.75Q219-28.5 220.32-30.65 221.65-32.8 224-34.02 226.35-35.25 229.25-35.25L229.25-35.25ZM243.6-26.45L249.75-26.45 249.75 0 243.6 0 243.6-26.45ZM246.65-39.65Q248.3-39.65 249.32-38.6 250.35-37.55 250.35-35.9L250.35-35.9Q250.35-34.3 249.32-33.25 248.3-32.2 246.65-32.2L246.65-32.2Q245-32.2 243.97-33.25 242.95-34.3 242.95-35.9L242.95-35.9Q242.95-37.55 243.97-38.6 245-39.65 246.65-39.65L246.65-39.65ZM262.8-27.15Q267.5-27.15 270.75-24.05L270.75-24.05 268.4-20.7Q267-21.7 265.75-22.2 264.5-22.7 263.2-22.7L263.2-22.7Q261.75-22.7 260.92-21.93 260.1-21.15 260.1-19.8L260.1-19.8Q260.1-18.45 261.02-17.63 261.95-16.8 264.75-15.7L264.75-15.7Q268.2-14.35 269.85-12.5 271.5-10.65 271.5-7.55L271.5-7.55Q271.5-3.7 268.8-1.48 266.1 0.75 261.95 0.75L261.95 0.75Q259.25 0.75 256.97-0.23 254.7-1.2 253-2.95L253-2.95 256-6.25Q258.8-3.8 261.7-3.8L261.7-3.8Q263.35-3.8 264.3-4.67 265.25-5.55 265.25-7.1L265.25-7.1Q265.25-8.25 264.85-8.97 264.45-9.7 263.45-10.33 262.45-10.95 260.45-11.7L260.45-11.7Q257-13.05 255.52-14.85 254.05-16.65 254.05-19.45L254.05-19.45Q254.05-22.8 256.42-24.98 258.8-27.15 262.8-27.15L262.8-27.15ZM286.5-5L288.65-1.2Q286.2 0.75 282.9 0.75L282.9 0.75Q279.45 0.75 277.65-1.23 275.85-3.2 275.85-6.6L275.85-6.6 275.85-22 272.75-22 272.75-26.45 275.85-26.45 275.85-32.3 282-33.05 282-26.45 287-26.45 286.4-22 282-22 282-6.6Q282-4.2 284.05-4.2L284.05-4.2Q284.7-4.2 285.2-4.38 285.7-4.55 286.5-5L286.5-5ZM310.05-13.85Q310.05-13.4 309.9-11.3L309.9-11.3 296.25-11.3Q296.45-7.2 297.67-5.58 298.9-3.95 301.15-3.95L301.15-3.95Q302.7-3.95 303.95-4.48 305.2-5 306.65-6.15L306.65-6.15 309.2-2.65Q305.7 0.75 300.8 0.75L300.8 0.75Q295.6 0.75 292.82-2.85 290.05-6.45 290.05-13L290.05-13Q290.05-19.55 292.7-23.35 295.35-27.15 300.2-27.15L300.2-27.15Q304.85-27.15 307.45-23.78 310.05-20.4 310.05-13.85L310.05-13.85ZM304.05-15.3L304.05-15.65Q304.05-19.4 303.15-21.13 302.25-22.85 300.25-22.85L300.25-22.85Q298.4-22.85 297.42-21.18 296.45-19.5 296.25-15.3L296.25-15.3 304.05-15.3ZM338-27.15Q340.65-27.15 342.25-25.1 343.85-23.05 343.85-19.6L343.85-19.6 343.85 0 337.8 0 337.8-18.95Q337.8-20.85 337.3-21.68 336.8-22.5 335.85-22.5L335.85-22.5Q333.9-22.5 332.1-18.8L332.1-18.8 332.1 0 326.1 0 326.1-18.95Q326.1-22.5 324.2-22.5L324.2-22.5Q322.15-22.5 320.4-18.8L320.4-18.8 320.4 0 314.35 0 314.35-26.45 319.7-26.45 320.1-23.05Q322.7-27.15 326.35-27.15L326.35-27.15Q328.2-27.15 329.55-26 330.9-24.85 331.6-22.75L331.6-22.75Q334.25-27.15 338-27.15L338-27.15ZM349.35-26.45L355.5-26.45 355.5 0 349.35 0 349.35-26.45ZM352.4-39.65Q354.05-39.65 355.07-38.6 356.1-37.55 356.1-35.9L356.1-35.9Q356.1-34.3 355.07-33.25 354.05-32.2 352.4-32.2L352.4-32.2Q350.75-32.2 349.72-33.25 348.7-34.3 348.7-35.9L348.7-35.9Q348.7-37.55 349.72-38.6 350.75-39.65 352.4-39.65L352.4-39.65Z"
                                    opacity="1" transform="matrix(1,0,0,1,0,0)" fill="#8eaec4" class="slogan-text-1"
                                    data-fill-palette-color="secondary" id="text-1"></path>
                                </svg></g>
                            </svg></g>
                        </svg></g>
                    </svg></g>
                  <g></g>
                </svg></g>
            </svg></g>
          <defs></defs>
        </svg>
        <rect width="343.51716720657936" height="247.2" fill="none" stroke="none" visibility="hidden"></rect>
      </g>
    </svg></g>
</svg>